<svg width="88" height="88" viewBox="0 0 88 88" fill="none" xmlns="http://www.w3.org/2000/svg">
<rect width="88" height="88" fill="#BFFF00"/>
<path d="M56 56C56 49.9249 60.9249 45 67 45V56H56Z" fill="black"/>
<rect x="56" y="56" width="11" height="3" fill="black"/>
<path d="M84 44C84 50.6274 78.6274 56 72 56L67 56L67 45L73 45C73.5523 45 74 44.5523 74 44C74 43.4477 73.5523 43 73 43L67 43L67 32L72 32C78.6274 32 84 37.3726 84 44Z" fill="black"/>
<path d="M57 71C63.6274 71 69 76.3726 69 83V88H58V82C58 81.4477 57.5523 81 57 81C56.4477 81 56 81.4477 56 82V88H45V83C45 76.3726 50.3726 71 57 71Z" fill="black"/>
<path d="M31 71C24.3726 71 19 76.3726 19 83V88H30L30 82C30 81.4477 30.4477 81 31 81C31.5523 81 32 81.4477 32 82L32 88H43V83C43 76.3726 37.6274 71 31 71Z" fill="black"/>
<path d="M44 6C50.6274 6 56 11.3726 56 18V21H45V17C45 16.4477 44.5523 16 44 16C43.4477 16 43 16.4477 43 17V21H32L32 18C32 11.3726 37.3726 6 44 6Z" fill="black"/>
<path d="M32 56C32 49.9249 27.0751 45 21 45V56H32Z" fill="black"/>
<rect width="11" height="3" transform="matrix(-1 0 0 1 32 56)" fill="black"/>
<path d="M4 44C4 50.6274 9.37258 56 16 56L21 56L21 45L15 45C14.4477 45 14 44.5523 14 44C14 43.4477 14.4477 43 15 43L21 43L21 32L16 32C9.37258 32 4 37.3726 4 44Z" fill="black"/>
<path d="M45 71C45 64.9249 49.9249 60 56 60V84H45V71Z" fill="black"/>
<path d="M43 71C43 64.9249 38.0751 60 32 60V84H43V71Z" fill="black"/>
<path d="M56 32H67V43C60.9249 43 56 38.0751 56 32Z" fill="black"/>
<path d="M32 32L32 21L43 21C43 27.0751 38.0751 32 32 32Z" fill="black"/>
<path d="M56 32L56 21L45 21C45 27.0751 49.9249 32 56 32Z" fill="black"/>
<path d="M67 32H56V21C62.0751 21 67 25.9249 67 32Z" fill="black"/>
<path d="M67 59H56V70C62.0751 70 67 65.0751 67 59Z" fill="black"/>
<path d="M21 59H32V70C25.9249 70 21 65.0751 21 59Z" fill="black"/>
<path d="M21 32H32V21C25.9249 21 21 25.9249 21 32Z" fill="black"/>
<path d="M32 32H21V43C27.0751 43 32 38.0751 32 32Z" fill="black"/>
<circle cx="39" cy="44" r="3" fill="black"/>
<circle cx="49" cy="44" r="3" fill="black"/>
</svg>
